<svg xmlns="http://www.w3.org/2000/svg" viewBox="0 0 595.28 284.79"><defs><style>.cls-1{isolation:isolate;}.cls-2{fill:#11171f;}.cls-3,.cls-5{mix-blend-mode:soft-light;}.cls-4,.cls-5{fill:#e1e2e3;}</style></defs><g class="cls-1"><g id="Layer_1" data-name="Layer 1"><rect class="cls-2" width="595.28" height="284.79"/><g class="cls-3"><path class="cls-4" d="M327.44,337.09a12.92,12.92,0,0,0-15.54,2.23c-2.28,2.13-2.91,4.8-3.52,7.39-1.31,5.58-.43,12.55,4.79,13.42,3.82.63,5.7,1.6,12.83-.89,1.86-.81,10.21-10.94,3.44-19.85l1-3.73-10,9,4.54,3.53-12.3,7.62,6.34-8.41-3.27-2.08Z" transform="translate(0 -271.07)"/></g></g><g id="Layer_2" data-name="Layer 2"><path class="cls-5" d="M325,362.92c.12,8.31-.79,18.44-6,28.33l-39.37,23.59-98.56.7L208.7,402.7h16.23l10.61-15a9.45,9.45,0,0,1,12.08-2.92c11.84,6.19,28.9,17.87,27.83,16.9-.24-.22,7.32-13.19,7.32-13.19l-51.43-27.27a2.74,2.74,0,0,1-.84-4.09c1.65-2.11,3.75-4.66,3.75-4,1.27-.55,3.8,1.23,7.25,4.72C275.92,371.88,303.56,378.05,325,362.92Z" transform="translate(0 -271.07)"/><path class="cls-5" d="M152.89,392.3c3.91,6.59,4.73,5.89,4.73,5.89l45.07-10.41s-10.21,18.74-10.51,19.08l11.72-5.2,8.11-16,14.06,9,3.91-4.86-15-9.7c4.59-7,11.58-12.56,19.37-13.87l-7.95-4.16c-10.36,4.32-14.51,10.11-19.23,16.65Z" transform="translate(0 -271.07)"/><path class="cls-5" d="M98.4,481.84l12.46-37.54,42,.35c14.89,7.72.3,26-13.68,25.26l11.55,12.28h-15.5l-11.85-12.63h-7l8.81-6.66,16.72-.7c4.84-2.5,7.77-5.25,5.16-8.77H119.68l-11.55,36.48Z" transform="translate(0 -271.07)"/><path class="cls-5" d="M154.63,481.49l31-36.84h15.2l6.38,36.84-13.37.7-1.22-5.61s-16.71-.35-16.71,0c0,0,6.68-6.67,7-6.67l9.11.36-2.73-13.69-20.06,25.61Z" transform="translate(0 -271.07)"/><path class="cls-5" d="M208.73,489.91l16.11-45.26s41.33-.7,41.64-.35l-11.86,8.77-21.57.36-8.21,28.06Z" transform="translate(0 -271.07)"/><path class="cls-5" d="M233.05,466.06l3.64-5.62s24.62-.35,24.32,0l-7.3,6Z" transform="translate(0 -271.07)"/><path class="cls-5" d="M272.25,444.65l-4.56,9.13h15.5l-12.46,37.54,14.9-8.78,8.2-29.11h16.72l3.95-9.13Z" transform="translate(0 -271.07)"/><path class="cls-5" d="M362.22,481.84,393.83,445h14.59l6.07,36.83-13.07.7-.91-6H382.88l7-6h9.72l-1.21-13.69L376.2,481.84Z" transform="translate(0 -271.07)"/><path class="cls-5" d="M304.81,481.84,336.42,445H351l6.08,36.83-13.07.7-.91-6H325.48l7-6h9.72L341,456.93l-22.19,24.91Z" transform="translate(0 -271.07)"/><path class="cls-5" d="M420.27,481.84l12.46-37.54,41.94.35c14.9,7.72.31,26-13.67,25.26l11.55,12.28h-15.5l-11.86-12.63h-7L447,462.9l16.71-.7c4.85-2.5,7.77-5.25,5.17-8.77H441.54L430,489.91Z" transform="translate(0 -271.07)"/><path class="cls-5" d="M330.85,361.72c.1,12.45-1.49,18-6,31.21,0,.7-42.87,24.71-42.87,24.71l-115.19,1.05L151,393.08a147.39,147.39,0,0,0-42.24,27.72,98.87,98.87,0,0,1,40.42-31.93h0a6.82,6.82,0,0,0-8.13-1.65C112.52,400.91,98.22,418.44,95.36,439l381.74.35h13.38l.3-75.78c-48.89-15.73-98.41-26.55-156.55-23.84,2.87,3.48,3,12.52-1.81,17.25,82-3.22,116.1,2.4,153.5,11.15L485,431l-2.74.35.8-60.91C446.91,361.92,405.94,356.16,330.85,361.72Zm-3.06,48.76-5.17,17.76L312,434.73l7.46-25.27-11.77.34,9.76-6.15,28.71-.34-9.76,7.17ZM363.1,432l-23-.34,9.47-28.35h30.14l-8.61,6.49H354.77l-4.88,16.05h22.39ZM370,420.39H354.77l2.58-4.44h15.79Zm33,12.3-.29-4.45H390.08l4-4.44h7.17l.29-9.22-3.73-.34-14.07,17.42-10.33.34,24.11-27.67h11.2l2.87,28.36Zm57.41-.69-8.62.69,4-14.35S444.9,431.66,444.9,432l-12.63.69L430.84,416,425.67,432h-9.18l10-28.35,11.77.34s2,18.45,2,18.79l16.08-18.1,12.63-.35Z" transform="translate(0 -271.07)"/></g></g></svg>